{"title":"BRONSON 2008 IN H.264 BY WINKER","uid":5264728,"size":944694382,"categoryP":"video","categoryS":"movies","magnet":"?xt=urn:btih:d4333827223ef0c7202986650073b6b02502bfa3&amp;dn=BRONSON+2008+IN+H.264+BY+WINKER&amp;tr=udp%3A%2F%2Ftracker.openbittorrent.com%3A80&amp;tr=udp%3A%2F%2Fopen.demonii.com%3A1337&amp;tr=udp%3A%2F%2Ftracker.coppersurfer.tk%3A6969&amp;tr=udp%3A%2F%2Fexodus.desync.com%3A6969","seeders":0,"leechers":0,"uploader":"alanwatson","files":-1,"time":1262856126,"description":"In 1974, a misguided 19 year old decided he wanted to make a name for himself and so, armed with a sawn-off shotgun and a head full of dreams, he attempted to rob a post office. Swiftly apprehended and originally sentenced to 7 years in jail, Michael Peterson has subsequently been behind bars for 34 years and transformed into Charles Bronson, Britain's most notorious prisoner.\n\nFor this controversial but critically acclaimed film from director Nicolas Winding Refn (the Pusher trilogy), Tom Hardy physically transformed himself for the role and gives a performance described by The Sun as &quot;utterly brilliant&quot;.\n\nFormat                           : MPEG-4\nFormat profile                   : Base Media / Version 2\nCodec ID                         : mp42\nFile size                        : 900 MiB\nDuration                         : 1h 28mn\nOverall bit rate                 : 1 417 Kbps\nEncoded date                     : UTC 2010-01-07 02:09:24\nTagged date                      : UTC 2010-01-07 06:43:20\nWriting application              : HandBrake 0.9.3 2008112300\n\nVideo\nID                               : 1\nFormat                           : AVC\nFormat/Info                      : Advanced Video Codec\nFormat profile                   : &lt;a class=&quot;__cf_email__&quot; href=&quot;/cdn-cgi/l/email-protection&quot; data-cfemail=&quot;e0ad81898ea0acd4ced0&quot;&gt;[email&amp;#160;protected]&lt;/a&gt;&lt;script cf-hash='f9e31' type=&quot;text/javascript&quot;&gt;\n/* &lt;![CDATA[ */!function(){try{var t=&quot;currentScript&quot;in document?document.currentScript:function(){for(var t=document.getElementsByTagName(&quot;script&quot;),e=t.length;e--;)if(t[e].getAttribute(&quot;cf-hash&quot;))return t[e]}();if(t&amp;&amp;t.previousSibling){var e,r,n,i,c=t.previousSibling,a=c.getAttribute(&quot;data-cfemail&quot;);if(a){for(e=&quot;&quot;,r=parseInt(a.substr(0,2),16),n=2;a.length-n;n+=2)i=parseInt(a.substr(n,2),16)^r,e+=String.fromCharCode(i);e=document.createTextNode(e),c.parentNode.replaceChild(e,c)}}}catch(u){}}();/* ]]&gt; */&lt;/script&gt;\nFormat settings, CABAC           : Yes\nFormat settings, ReFrames        : 3 frames\nCodec ID                         : avc1\nCodec ID/Info                    : Advanced Video Coding\nDuration                         : 1h 28mn\nBit rate mode                    : Variable\nBit rate                         : 1 254 Kbps\nWidth                            : 718 pixels\nHeight                           : 552 pixels\nDisplay aspect ratio             : 1.850\nFrame rate mode                  : Variable\nFrame rate                       : 25.000 fps\nMinimum frame rate               : 12.500 fps\nMaximum frame rate               : 25.000 fps\nResolution                       : 24 bits\nColorimetry                      : 4:2:0\nScan type                        : Progressive\nBits/(Pixel*Frame)               : 0.127\nStream size                      : 796 MiB (88%)\nWriting library                  : x264 core 65\n\n\nAudio\nID                               : 2\nFormat                           : AAC\nFormat/Info                      : Advanced Audio Codec\nFormat version                   : Version 4\nFormat profile                   : LC\nFormat settings, SBR             : No\nCodec ID                         : 40\nDuration                         : 1h 28mn\nBit rate mode                    : Variable\nBit rate                         : 160 Kbps\nMaximum bit rate                 : 205 Kbps\nChannel(s)                       : 2 channels\nChannel positions                : L R\nSampling rate                    : 48.0 KHz\nResolution                       : 16 bits\nStream size                      : 102 MiB (11%)\nLanguage                         : English\nEncoded date                     : UTC 2010-01-07 02:09:24\nTagged date                      : UTC 2010-01-07 06:43:17\n\n","torrent":{"xt":"urn:btih:d4333827223ef0c7202986650073b6b02502bfa3","amp;dn":"BRONSON+2008+IN+H.264+BY+WINKER","amp;tr":["udp%3A%2F%2Ftracker.openbittorrent.com%3A80","udp%3A%2F%2Fopen.demonii.com%3A1337","udp%3A%2F%2Ftracker.coppersurfer.tk%3A6969","udp%3A%2F%2Fexodus.desync.com%3A6969"],"infoHash":"d4333827223ef0c7202986650073b6b02502bfa3","infoHashBuffer":{"type":"Buffer","data":[212,51,56,39,34,62,240,199,32,41,134,101,0,115,182,176,37,2,191,163]},"announce":[],"urlList":[]}}